<?xml version="1.0" encoding="utf-8"?>
<!-- Generator: Adobe Illustrator 25.2.1, SVG Export Plug-In . SVG Version: 6.00 Build 0)  -->
<svg version="1.1" id="Camada_1" xmlns="http://www.w3.org/2000/svg" xmlns:xlink="http://www.w3.org/1999/xlink" x="0px" y="0px"
	 viewBox="0 0 2400 350" style="enable-background:new 0 0 2400 350;" xml:space="preserve">
<style type="text/css">
	.st0{fill:url(#SVGID_1_);}
	.st1{fill:url(#SVGID_2_);}
	.st2{fill:url(#SVGID_3_);}
	.st3{fill:url(#SVGID_4_);}
	.st4{fill:url(#SVGID_5_);}
	.st5{fill:url(#SVGID_6_);}
	.st6{fill:url(#SVGID_7_);}
</style>
<linearGradient id="SVGID_1_" gradientUnits="userSpaceOnUse" x1="159.5802" y1="509.6923" x2="667.421" y2="1.8515">
	<stop  offset="0" style="stop-color:#F17452"/>
	<stop  offset="1" style="stop-color:#E51948"/>
</linearGradient>
<path class="st0" d="M831.7,350V166.1c-61.1,29.5-103.8,12.7-158.4-1.6c-22.9-6-53.8-8.3-82.2,7.3c-99.7,54.7-117.1-1.2-188.7,2.1
	c-44.2,2.1-72.8,19.2-98.8,35.1c-42.4,26.1-77.4,49.1-160.8-1.9c0,0,0,0,0,0c-73.6-45-118-52.5-143.1-50.1V350H831.7z"/>
<linearGradient id="SVGID_2_" gradientUnits="userSpaceOnUse" x1="415.7579" y1="-1199.957" x2="415.7579" y2="-992.0003" gradientTransform="matrix(1 0 0 -1 0 -850)">
	<stop  offset="0" style="stop-color:#DDEFFF"/>
	<stop  offset="9.753297e-02" style="stop-color:#D1E7FD"/>
	<stop  offset="0.2723" style="stop-color:#B2D3F7"/>
	<stop  offset="0.5042" style="stop-color:#80B3ED"/>
	<stop  offset="0.7809" style="stop-color:#3B86E0"/>
	<stop  offset="1" style="stop-color:#0060D4"/>
</linearGradient>
<path class="st1" d="M831.7,350V155.6c-25.3-10.7-83.5-22.2-129.3-4c-9.3,3.7-19.2,9-30.2,15.7c-54.8,33.4-76,82.2-190.8,44.4
	c-67.7-22.3-96.8,37.6-163,4.2c-5-2.5-9.9-4.8-14.6-6.9c-54.9-24.1-96.7-34.7-160.8-15.7h0c-4.1,1.2-8.3,2.5-12.6,3.8
	C65,217.6,25.6,222.1-0.2,206.1V350H831.7z"/>
<linearGradient id="SVGID_3_" gradientUnits="userSpaceOnUse" x1="-246.4634" y1="509.6152" x2="261.3774" y2="1.7744" gradientTransform="matrix(-1 0 0 1 1189.4286 0)">
	<stop  offset="0" style="stop-color:#F17452"/>
	<stop  offset="1" style="stop-color:#E51948"/>
</linearGradient>
<path class="st2" d="M763.8,349.9V166c61.1,29.5,103.8,12.7,158.4-1.6c22.9-6,53.8-8.3,82.2,7.3c99.7,54.7,117.1-1.2,188.7,2.1
	c44.2,2.1,72.8,19.2,98.8,35.1c42.4,26.1,77.4,49.1,160.8-1.9c0,0,0,0,0,0c73.6-45,118-52.5,143.1-50.1v192.9H763.8z"/>
<linearGradient id="SVGID_4_" gradientUnits="userSpaceOnUse" x1="74.7143" y1="-1200.8799" x2="74.7143" y2="-992.9232" gradientTransform="matrix(-1 0 0 -1 1189.4286 -850)">
	<stop  offset="0" style="stop-color:#DDEFFF"/>
	<stop  offset="9.753297e-02" style="stop-color:#D1E7FD"/>
	<stop  offset="0.2723" style="stop-color:#B2D3F7"/>
	<stop  offset="0.5042" style="stop-color:#80B3ED"/>
	<stop  offset="0.7809" style="stop-color:#3B86E0"/>
	<stop  offset="1" style="stop-color:#0060D4"/>
</linearGradient>
<path class="st3" d="M698.8,350.9V156.5c25.3-10.7,83.5-22.2,129.3-4c9.3,3.7,19.2,9,30.2,15.7c54.8,33.4,76,82.2,190.8,44.4
	c67.7-22.3,96.8,37.6,163,4.2c5-2.5,9.9-4.8,14.6-6.9c54.9-24.1,96.7-34.7,160.8-15.7h0c4.1,1.2,8.3,2.5,12.6,3.8
	c65.3,20.4,104.7,24.9,130.5,8.9v143.9H698.8z"/>
<linearGradient id="SVGID_5_" gradientUnits="userSpaceOnUse" x1="-358.0309" y1="502.6905" x2="130.6835" y2="13.9761" gradientTransform="matrix(1 0 0 1 2106.8572 0)">
	<stop  offset="0" style="stop-color:#F17452"/>
	<stop  offset="1" style="stop-color:#E51948"/>
</linearGradient>
<path class="st4" d="M2400,176.4c-47.2,13.6-84.8-0.2-130.8-12.3c-22.9-6-53.8-8.3-82.2,7.3c-99.7,54.7-117.1-1.2-188.7,2.1
	c-44.2,2.1-72.8,19.2-98.8,35.1c-42.4,26.1-77.4,49.1-160.8-1.9c0,0,0,0,0,0c-73.6-45-118-52.5-143.1-50.1v192.9H2401"/>
<linearGradient id="SVGID_6_" gradientUnits="userSpaceOnUse" x1="-262.2143" y1="-1201.5942" x2="-262.2143" y2="-993.6375" gradientTransform="matrix(1 0 0 -1 2106.8572 -850)">
	<stop  offset="0" style="stop-color:#DDEFFF"/>
	<stop  offset="9.753297e-02" style="stop-color:#D1E7FD"/>
	<stop  offset="0.2723" style="stop-color:#B2D3F7"/>
	<stop  offset="0.5042" style="stop-color:#80B3ED"/>
	<stop  offset="0.7809" style="stop-color:#3B86E0"/>
	<stop  offset="1" style="stop-color:#0060D4"/>
</linearGradient>
<path class="st5" d="M2260.6,351.6V157.2c-25.3-10.7-83.5-22.2-129.3-4c-9.3,3.7-19.2,9-30.2,15.7c-54.8,33.4-76,82.2-190.8,44.4
	c-67.7-22.3-96.8,37.6-163,4.2c-5-2.5-9.9-4.8-14.6-6.9c-54.9-24.1-96.7-34.7-160.8-15.7h0c-4.1,1.2-8.3,2.5-12.6,3.8
	c-65.3,20.4-104.7,24.9-130.5,8.9v143.9H2260.6z"/>
<linearGradient id="SVGID_7_" gradientUnits="userSpaceOnUse" x1="-181.115" y1="-1201.0228" x2="-181.115" y2="-993.066" gradientTransform="matrix(-1 0 0 -1 2082.8572 -850)">
	<stop  offset="0" style="stop-color:#DDEFFF"/>
	<stop  offset="9.753297e-02" style="stop-color:#D1E7FD"/>
	<stop  offset="0.2723" style="stop-color:#B2D3F7"/>
	<stop  offset="0.5042" style="stop-color:#80B3ED"/>
	<stop  offset="0.7809" style="stop-color:#3B86E0"/>
	<stop  offset="1" style="stop-color:#0060D4"/>
</linearGradient>
<path class="st6" d="M2401,351h-274.1V156.6c25.3-10.7,83.5-22.2,129.3-4c9.3,3.7,19.2,9,30.2,15.7c39.5,24.1,61.6,56.2,114,58"/>
</svg>
