<svg width="20" height="21" viewBox="0 0 20 21" fill="none" xmlns="http://www.w3.org/2000/svg">
<g clip-path="url(#clip0)">
<path d="M14.3117 13.5759C15.4918 11.8417 16.0203 9.69157 15.7916 7.55569C15.5629 5.4198 14.5937 3.45569 13.078 2.05629C11.5623 0.656889 9.61185 -0.0745903 7.61686 0.00819318C5.62187 0.0909767 3.72948 0.981918 2.31826 2.50277C0.907054 4.02362 0.0811058 6.06223 0.00566296 8.21074C-0.0697799 10.3592 0.610846 12.4592 1.91137 14.0905C3.2119 15.7218 5.03641 16.7641 7.0199 17.0089C9.00338 17.2537 10.9996 16.6829 12.6091 15.4108H12.6078C12.6444 15.4633 12.6834 15.5132 12.7273 15.5617L17.4195 20.6149C17.648 20.8611 17.958 20.9996 18.2813 20.9997C18.6046 20.9998 18.9147 20.8616 19.1434 20.6155C19.3721 20.3694 19.5006 20.0356 19.5007 19.6874C19.5008 19.3392 19.3725 19.0053 19.144 18.759L14.4518 13.7059C14.4082 13.6584 14.3614 13.6145 14.3117 13.5746V13.5759ZM14.6261 8.53068C14.6261 9.47866 14.4527 10.4174 14.1158 11.2932C13.779 12.169 13.2852 12.9648 12.6628 13.6351C12.0404 14.3054 11.3014 14.8372 10.4881 15.1999C9.67488 15.5627 8.80324 15.7494 7.92297 15.7494C7.0427 15.7494 6.17105 15.5627 5.35779 15.1999C4.54453 14.8372 3.80559 14.3054 3.18314 13.6351C2.5607 12.9648 2.06695 12.169 1.73009 11.2932C1.39323 10.4174 1.21984 9.47866 1.21984 8.53068C1.21984 6.61615 1.92606 4.78003 3.18314 3.42625C4.44022 2.07247 6.14519 1.31193 7.92297 1.31193C9.70075 1.31193 11.4057 2.07247 12.6628 3.42625C13.9199 4.78003 14.6261 6.61615 14.6261 8.53068Z" fill="#979797"/>
</g>
<defs>
<clipPath id="clip0">
<rect width="19.5" height="21" fill="white"/>
</clipPath>
</defs>
</svg>
