<svg width="26" height="25" viewBox="0 0 26 25" fill="none" xmlns="http://www.w3.org/2000/svg">
<path d="M25 23.0625V24H1V23.0625C1 22.7519 1.28784 22.5 1.64286 22.5H2.71429V5.625C2.71429 5.00367 3.28991 4.5 4 4.5H8.71429V1.125C8.71429 0.503672 9.28991 0 10 0H16C16.7101 0 17.2857 0.503672 17.2857 1.125V4.5H22C22.7101 4.5 23.2857 5.00367 23.2857 5.625V22.5H24.3571C24.7122 22.5 25 22.7519 25 23.0625ZM17.5 9H15.3571C15.0021 9 14.7143 9.25186 14.7143 9.5625V11.4375C14.7143 11.7481 15.0021 12 15.3571 12H17.5C17.855 12 18.1429 11.7481 18.1429 11.4375V9.5625C18.1429 9.25186 17.855 9 17.5 9ZM8.5 12H10.6429C10.9979 12 11.2857 11.7481 11.2857 11.4375V9.5625C11.2857 9.25186 10.9979 9 10.6429 9H8.5C8.14498 9 7.85714 9.25186 7.85714 9.5625V11.4375C7.85714 11.7481 8.14498 12 8.5 12ZM14.0714 18H11.9286C11.5736 18 11.2857 18.2519 11.2857 18.5625V22.5H14.7143V18.5625C14.7143 18.2519 14.4264 18 14.0714 18ZM17.5 13.5H15.3571C15.0021 13.5 14.7143 13.7519 14.7143 14.0625V15.9375C14.7143 16.2481 15.0021 16.5 15.3571 16.5H17.5C17.855 16.5 18.1429 16.2481 18.1429 15.9375V14.0625C18.1429 13.7519 17.855 13.5 17.5 13.5ZM11.2857 14.0625C11.2857 13.7519 10.9979 13.5 10.6429 13.5H8.5C8.14498 13.5 7.85714 13.7519 7.85714 14.0625V15.9375C7.85714 16.2481 8.14498 16.5 8.5 16.5H10.6429C10.9979 16.5 11.2857 16.2481 11.2857 15.9375V14.0625ZM10.75 4.5H12.1429V5.71875C12.1429 5.79334 12.1767 5.86488 12.237 5.91762C12.2973 5.97037 12.379 6 12.4643 6H13.5357C13.621 6 13.7027 5.97037 13.763 5.91762C13.8233 5.86488 13.8571 5.79334 13.8571 5.71875V4.5H15.25C15.3352 4.5 15.417 4.47037 15.4773 4.41762C15.5376 4.36488 15.5714 4.29334 15.5714 4.21875V3.28125C15.5714 3.20666 15.5376 3.13512 15.4773 3.08238C15.417 3.02963 15.3352 3 15.25 3H13.8571V1.78125C13.8571 1.70666 13.8233 1.63512 13.763 1.58238C13.7027 1.52963 13.621 1.5 13.5357 1.5H12.4643C12.379 1.5 12.2973 1.52963 12.237 1.58238C12.1767 1.63512 12.1429 1.70666 12.1429 1.78125V3H10.75C10.6648 3 10.583 3.02963 10.5227 3.08238C10.4624 3.13512 10.4286 3.20666 10.4286 3.28125V4.21875C10.4286 4.29334 10.4624 4.36488 10.5227 4.41762C10.583 4.47037 10.6648 4.5 10.75 4.5Z" fill="white"/>
</svg>
