<svg width="27" height="23" viewBox="0 0 27 23" fill="none" xmlns="http://www.w3.org/2000/svg">
<g clip-path="url(#clip0)">
<g clip-path="url(#clip1)">
<path d="M25.4124 15.18H24.8118V10.5182C24.8118 9.9705 24.6204 9.44437 24.2825 9.05625L20.5324 4.74806C20.1945 4.35994 19.7366 4.14 19.2598 4.14H17.6043V2.07C17.6043 0.927187 16.7973 0 15.8025 0H3.79004C2.79526 0 1.98817 0.927187 1.98817 2.07V15.87C1.98817 17.0128 2.79526 17.94 3.79004 17.94H4.39066C4.39066 20.2256 6.00483 22.08 7.9944 22.08C9.98396 22.08 11.5981 20.2256 11.5981 17.94H16.4031C16.4031 20.2256 18.0173 22.08 20.0068 22.08C21.9964 22.08 23.6106 20.2256 23.6106 17.94H25.4124C25.7428 17.94 26.0131 17.6295 26.0131 17.25V15.87C26.0131 15.4905 25.7428 15.18 25.4124 15.18ZM7.9944 20.01C6.99962 20.01 6.19253 19.0828 6.19253 17.94C6.19253 16.7972 6.99962 15.87 7.9944 15.87C8.98918 15.87 9.79626 16.7972 9.79626 17.94C9.79626 19.0828 8.98918 20.01 7.9944 20.01ZM13.4 9.315C13.4 9.50475 13.2649 9.66 13.0997 9.66H10.9975V12.075C10.9975 12.2647 10.8624 12.42 10.6972 12.42H8.89533C8.73016 12.42 8.59502 12.2647 8.59502 12.075V9.66H6.49284C6.32767 9.66 6.19253 9.50475 6.19253 9.315V7.245C6.19253 7.05525 6.32767 6.9 6.49284 6.9H8.59502V4.485C8.59502 4.29525 8.73016 4.14 8.89533 4.14H10.6972C10.8624 4.14 10.9975 4.29525 10.9975 4.485V6.9H13.0997C13.2649 6.9 13.4 7.05525 13.4 7.245V9.315ZM20.0068 20.01C19.0121 20.01 18.205 19.0828 18.205 17.94C18.205 16.7972 19.0121 15.87 20.0068 15.87C21.0016 15.87 21.8087 16.7972 21.8087 17.94C21.8087 19.0828 21.0016 20.01 20.0068 20.01ZM23.0099 11.04H17.6043V6.21H19.2598L23.0099 10.5182V11.04Z" fill="white"/>
</g>
</g>
<defs>
<clipPath id="clip0">
<rect width="27" height="23" fill="white"/>
</clipPath>
<clipPath id="clip1">
<rect width="24.0249" height="22.08" fill="white" transform="translate(1.98817)"/>
</clipPath>
</defs>
</svg>
