<svg width="20" height="21" viewBox="0 0 20 21" fill="none" xmlns="http://www.w3.org/2000/svg">
<g clip-path="url(#clip0)">
<path d="M10.3777 1.33744C10.1688 1.32083 9.95943 1.31251 9.75 1.3125V0C9.98953 0.000125774 10.229 0.00975731 10.4678 0.028875L10.3777 1.33744ZM12.82 1.92806C12.4294 1.76571 12.0281 1.63455 11.6196 1.53562L11.8865 0.254625C12.3533 0.3675 12.8127 0.517125 13.2588 0.7035L12.82 1.92806ZM14.4897 2.85994C14.3155 2.73479 14.137 2.61658 13.9547 2.50556L14.5555 1.36369C14.9722 1.61797 15.371 1.90486 15.7487 2.22206L14.9992 3.25763C14.8339 3.1188 14.664 2.98659 14.4897 2.86125V2.85994ZM16.7249 5.20931C16.4838 4.84047 16.2178 4.49127 15.9291 4.16456L16.8114 3.25894C17.1405 3.633 17.4452 4.03331 17.7218 4.45331L16.7249 5.20931ZM17.6317 6.98381C17.5517 6.77573 17.4647 6.57084 17.3708 6.36956L18.4592 5.77894C18.6744 6.23974 18.8577 6.71704 19.0076 7.20694L17.8498 7.61775C17.7843 7.40364 17.7115 7.19218 17.6317 6.98381ZM18.2776 10.2743C18.2677 9.8232 18.227 9.37354 18.1557 8.92894L19.3562 8.70581C19.4378 9.21244 19.4854 9.72694 19.4976 10.2414L18.2788 10.2743H18.2776ZM18.1179 12.2929C18.1582 12.0697 18.1911 11.8479 18.2167 11.6235L19.4269 11.7849C19.3683 12.297 19.2746 12.8037 19.1466 13.3009L17.9717 12.9504C18.0278 12.7339 18.0765 12.5147 18.1179 12.2929ZM16.9577 15.4153C17.1819 15.0347 17.3794 14.6357 17.55 14.2236L18.6639 14.7551C18.4689 15.2276 18.2435 15.6817 17.9875 16.1175L16.9577 15.4153ZM15.7828 16.9969C15.9315 16.8368 16.0741 16.6714 16.2094 16.5007L17.1332 17.3578C16.9767 17.5532 16.8137 17.7423 16.6445 17.9248L15.7828 16.9969Z" fill="#979797"/>
<path d="M9.75068 1.3125C8.34775 1.31261 6.9665 1.68531 5.72927 2.39759C4.49203 3.10988 3.437 4.13976 2.65762 5.39601C1.87825 6.65227 1.39858 8.09613 1.2611 9.59971C1.12363 11.1033 1.33259 12.6202 1.86948 14.016C2.40637 15.4118 3.25462 16.6435 4.3391 17.602C5.42357 18.5605 6.7108 19.2161 8.08676 19.5109C9.46273 19.8057 10.885 19.7305 12.2275 19.292C13.57 18.8535 14.7914 18.0651 15.7835 16.9969L16.6451 17.9248C15.5114 19.1465 14.1153 20.0481 12.5807 20.5498C11.046 21.0515 9.42012 21.1379 7.84707 20.8011C6.27402 20.4644 4.80238 19.715 3.56254 18.6194C2.32269 17.5238 1.35293 16.1158 0.739162 14.52C0.125398 12.9243 -0.113413 11.1902 0.0438888 9.47135C0.20119 7.75249 0.749747 6.10194 1.64096 4.66596C2.53216 3.22998 3.73851 2.0529 5.1531 1.239C6.56769 0.425112 8.14686 -0.000457711 9.75068 3.69414e-07V1.3125Z" fill="#979797"/>
<path d="M9.14062 3.9375C9.30224 3.9375 9.45724 4.00664 9.57152 4.12971C9.6858 4.25278 9.75 4.4197 9.75 4.59375V11.4319L13.7085 13.8679C13.8447 13.9564 13.9434 14.0988 13.9835 14.2646C14.0235 14.4305 14.0018 14.6066 13.9228 14.7554C13.8439 14.9042 13.714 15.0138 13.561 15.0608C13.408 15.1079 13.244 15.0886 13.104 15.0071L8.83837 12.3821C8.74511 12.3248 8.66758 12.2418 8.61364 12.1418C8.55971 12.0418 8.53128 11.9282 8.53125 11.8125V4.59375C8.53125 4.4197 8.59545 4.25278 8.70973 4.12971C8.82401 4.00664 8.97901 3.9375 9.14062 3.9375Z" fill="#979797"/>
</g>
<defs>
<clipPath id="clip0">
<rect width="19.5" height="21" fill="white"/>
</clipPath>
</defs>
</svg>
