<svg width="24" height="24" viewBox="0 0 24 24" fill="none" xmlns="http://www.w3.org/2000/svg">
<g clip-path="url(#clip0)">
<g filter="url(#filter0_d)">
<path d="M9.75 21.75V16.4925C9.75 16.125 10.125 15.75 10.5 15.75H13.5C13.875 15.75 14.25 16.125 14.25 16.5V21.75C14.25 21.9489 14.329 22.1397 14.4697 22.2803C14.6103 22.421 14.8011 22.5 15 22.5H21C21.1989 22.5 21.3897 22.421 21.5303 22.2803C21.671 22.1397 21.75 21.9489 21.75 21.75V11.25C21.7502 11.1514 21.7309 11.0538 21.6933 10.9627C21.6558 10.8716 21.6006 10.7888 21.531 10.719L19.5 8.6895V3.75C19.5 3.55109 19.421 3.36032 19.2803 3.21967C19.1397 3.07902 18.9489 3 18.75 3H17.25C17.0511 3 16.8603 3.07902 16.7197 3.21967C16.579 3.36032 16.5 3.55109 16.5 3.75V5.6895L12.531 1.719C12.4613 1.64915 12.3786 1.59374 12.2875 1.55593C12.1963 1.51812 12.0987 1.49866 12 1.49866C11.9014 1.49866 11.8037 1.51812 11.7126 1.55593C11.6214 1.59374 11.5387 1.64915 11.469 1.719L2.469 10.719C2.3994 10.7888 2.34423 10.8716 2.30665 10.9627C2.26908 11.0538 2.24983 11.1514 2.25 11.25V21.75C2.25 21.9489 2.32902 22.1397 2.46967 22.2803C2.61032 22.421 2.80109 22.5 3 22.5H9C9.19891 22.5 9.38968 22.421 9.53033 22.2803C9.67098 22.1397 9.75 21.9489 9.75 21.75Z" fill="#1374F1"/>
</g>
</g>
<defs>
<filter id="filter0_d" x="-0.75" y="-1.50134" width="25.5" height="27.0013" filterUnits="userSpaceOnUse" color-interpolation-filters="sRGB">
<feFlood flood-opacity="0" result="BackgroundImageFix"/>
<feColorMatrix in="SourceAlpha" type="matrix" values="0 0 0 0 0 0 0 0 0 0 0 0 0 0 0 0 0 0 127 0"/>
<feOffset/>
<feGaussianBlur stdDeviation="1.5"/>
<feColorMatrix type="matrix" values="0 0 0 0 0.0745098 0 0 0 0 0.454902 0 0 0 0 0.945098 0 0 0 1 0"/>
<feBlend mode="normal" in2="BackgroundImageFix" result="effect1_dropShadow"/>
<feBlend mode="normal" in="SourceGraphic" in2="effect1_dropShadow" result="shape"/>
</filter>
<clipPath id="clip0">
<rect width="24" height="24" fill="white"/>
</clipPath>
</defs>
</svg>
