<svg width="29" height="25" viewBox="0 0 29 25" fill="none" xmlns="http://www.w3.org/2000/svg">
<g clip-path="url(#clip0)">
<path d="M14.0002 5.39099L4.89495 14.4241C4.82745 14.4925 4.7412 14.5244 4.66703 14.5811V23.25C4.66703 23.4489 4.73727 23.6397 4.86229 23.7803C4.98731 23.921 5.15688 24 5.33369 24H22.6667C22.8435 24 23.0131 23.921 23.1381 23.7803C23.2631 23.6397 23.3334 23.4489 23.3334 23.25V14.583C23.2625 14.5286 23.1784 14.4977 23.1142 14.433L14.0002 5.39099ZM18.0001 17.6251C18.0001 17.7246 17.965 17.82 17.9025 17.8903C17.84 17.9606 17.7552 18.0001 17.6668 18.0001H15.3335V20.6251C15.3335 20.7245 15.2984 20.8199 15.2359 20.8902C15.1734 20.9606 15.0886 21.0001 15.0002 21.0001H13.0002C12.9118 21.0001 12.827 20.9606 12.7645 20.8902C12.702 20.8199 12.6669 20.7245 12.6669 20.6251V18.0001H10.3336C10.2452 18.0001 10.1604 17.9606 10.0979 17.8903C10.0354 17.82 10.0003 17.7246 10.0003 17.6251V15.3752C10.0003 15.2757 10.0354 15.1803 10.0979 15.11C10.1604 15.0397 10.2452 15.0002 10.3336 15.0002H12.6669V12.3752C12.6669 12.2758 12.702 12.1804 12.7645 12.1101C12.827 12.0397 12.9118 12.0002 13.0002 12.0002H15.0002C15.0886 12.0002 15.1734 12.0397 15.2359 12.1101C15.2984 12.1804 15.3335 12.2758 15.3335 12.3752V15.0002H17.6668C17.7552 15.0002 17.84 15.0397 17.9025 15.11C17.965 15.1803 18.0001 15.2757 18.0001 15.3752V17.6251ZM25.7787 11.0759L15.1148 0.482332C14.8095 0.171886 14.4127 0 14.0012 0C13.5898 0 13.1929 0.171886 12.8877 0.482332L2.22124 11.0759C2.15609 11.1417 2.1031 11.2213 2.0653 11.3102C2.0275 11.3991 2.00564 11.4954 2.00095 11.5938C1.99627 11.6922 2.00886 11.7906 2.03801 11.8835C2.06716 11.9764 2.11229 12.062 2.17083 12.1352L3.0629 13.2518C3.1214 13.3251 3.19218 13.3847 3.27117 13.4272C3.35016 13.4697 3.43583 13.4943 3.52328 13.4996C3.61072 13.5049 3.69823 13.4907 3.78081 13.4579C3.86339 13.4251 3.93941 13.3743 4.00454 13.3085L13.5594 3.8268C13.6812 3.70592 13.838 3.63922 14.0004 3.63922C14.1628 3.63922 14.3196 3.70592 14.4414 3.8268L23.9963 13.308C24.0614 13.3739 24.1374 13.4246 24.22 13.4574C24.3026 13.4902 24.3901 13.5044 24.4775 13.4991C24.565 13.4939 24.6506 13.4693 24.7296 13.4267C24.8086 13.3842 24.8794 13.3246 24.9379 13.2513L25.8296 12.1348C25.9476 11.9867 26.0086 11.792 25.999 11.5935C25.9895 11.3949 25.9103 11.2087 25.7787 11.0759Z" fill="white"/>
</g>
<defs>
<clipPath id="clip0">
<rect width="28" height="25" fill="white" transform="translate(0.5)"/>
</clipPath>
</defs>
</svg>
