<?xml version="1.0" encoding="utf-8"?>
<!-- Generator: Adobe Illustrator 25.2.1, SVG Export Plug-In . SVG Version: 6.00 Build 0)  -->
<svg version="1.1" id="Camada_1" xmlns="http://www.w3.org/2000/svg" xmlns:xlink="http://www.w3.org/1999/xlink" x="0px" y="0px"
	 viewBox="0 0 350 350" style="enable-background:new 0 0 350 350;" xml:space="preserve">
<style type="text/css">
	.st0{fill:#158AFF;}
	.st1{fill:#D8EEFC;}
	.st2{fill:#0097A5;}
	.st3{fill:#FFFFFF;}
	.st4{fill:none;}
	.st5{fill:#D73B38;}
	.st6{fill:#424651;}
	.st7{fill:#009F9F;}
	.st8{fill:#555F6D;}
	.st9{fill:#36393C;}
	.st10{fill:#484C56;}
	.st11{fill:#EFF7F8;}
	.st12{fill:#FCCA66;}
	.st13{fill:#F0900A;}
	.st14{fill:#CA2785;}
	.st15{fill:#E4B25E;}
	.st16{fill:#EEECEA;}
	.st17{fill:#FFFBFA;}
	.st18{fill:#DE5152;}
	.st19{fill:#FBFBFC;}
	.st20{fill:#455052;}
	.st21{fill:#C63836;}
	.st22{fill:#373C3C;}
	.st23{fill:#DD0F18;}
	.st24{fill:url(#SVGID_1_);}
	.st25{fill:url(#SVGID_2_);}
	.st26{fill:url(#SVGID_3_);}
	.st27{fill:url(#SVGID_4_);}
	.st28{fill:#F8937F;}
	.st29{fill:#D35950;}
	.st30{fill:url(#SVGID_5_);}
	.st31{fill:url(#SVGID_6_);}
	.st32{fill:url(#SVGID_7_);}
	.st33{fill:#FFF4E3;}
	.st34{fill:#F8935F;}
	.st35{fill:#FFD3D6;}
	.st36{fill:#9A6177;}
	.st37{fill:url(#SVGID_8_);}
	.st38{opacity:0.3;fill:url(#SVGID_9_);}
	.st39{fill:#D688A1;}
	.st40{opacity:0.5;fill:#D18C90;}
	.st41{fill:url(#SVGID_10_);}
	.st42{fill:url(#SVGID_11_);}
	.st43{fill:url(#SVGID_12_);}
	.st44{fill:url(#SVGID_13_);}
	.st45{fill:url(#SVGID_14_);}
</style>
<g>
	<g>
		<path class="st0" d="M58.4,189c0,0,0-0.5,0-1.5c0-0.2,0-0.5,0-0.8c0-0.3,0-0.6,0-1c0-0.4,0-0.8,0.1-1.2c0-0.4,0.1-0.9,0.1-1.3
			c0.1-1.9,0.4-4.2,0.8-7c0.4-2.7,1.1-5.9,2-9.3c0.1-0.2,0.1-0.4,0.2-0.6c0.1-0.2,0.1-0.4,0.2-0.7c0.1-0.4,0.3-0.9,0.4-1.3
			c0.3-0.9,0.6-1.8,0.9-2.7c0.3-0.9,0.7-1.9,1.1-2.8c0.4-1,0.8-1.9,1.2-2.9c1.7-3.9,3.9-8,6.6-12.2c2.7-4.1,6-8.3,9.9-12.3
			c3.9-4,8.4-7.8,13.4-11.2c2.5-1.7,5.2-3.3,8-4.7c2.8-1.5,5.8-2.8,8.9-3.9c3.1-1.2,6.3-2.1,9.6-2.9c0.8-0.2,1.7-0.4,2.5-0.6
			c0.4-0.1,0.8-0.2,1.3-0.2c0.4-0.1,0.8-0.2,1.3-0.2c0.4-0.1,0.9-0.1,1.3-0.2l0.6-0.1l0.6-0.1c0.4-0.1,0.9-0.1,1.3-0.2
			c0.4-0.1,0.9-0.1,1.3-0.2c0.9-0.1,1.7-0.2,2.6-0.3c0.4,0,0.9-0.1,1.3-0.1c0.4,0,0.9-0.1,1.3-0.1c0.4,0,0.9,0,1.3,0l0.7,0l0.7,0
			c0.4,0,0.9,0,1.3,0c0.5,0,0.9,0,1.3,0c0.9,0,1.8,0,2.7,0.1c0.5,0,0.9,0.1,1.4,0.1c0.5,0,0.9,0.1,1.4,0.1c0.9,0.1,1.8,0.2,2.7,0.3
			c0.5,0.1,0.9,0.1,1.4,0.2c0.5,0.1,0.9,0.1,1.4,0.2c0.5,0.1,0.9,0.1,1.4,0.2c0.5,0.1,0.9,0.1,1.4,0.2c0.9,0.2,1.8,0.3,2.7,0.5
			c1.8,0.4,3.6,0.9,5.4,1.4c0.9,0.3,1.8,0.5,2.7,0.8c0.9,0.3,1.8,0.6,2.7,0.9c0.4,0.2,0.9,0.3,1.3,0.5l0.7,0.3
			c0.2,0.1,0.4,0.2,0.7,0.3c0.4,0.2,0.9,0.4,1.3,0.5c0.4,0.2,0.9,0.4,1.3,0.6c7,3.1,13.6,7.2,19.6,12.3c6,5,11.4,11,15.8,17.7
			c4.4,6.7,7.9,14,10.2,21.8c2.3,7.7,3.5,15.9,3.5,24c0,8.1-1.2,16.2-3.6,24c-2.3,7.7-5.8,15.1-10.3,21.7
			c-4.4,6.6-9.8,12.6-15.8,17.6c-6,5-12.6,9.1-19.6,12.2c-0.4,0.2-0.9,0.4-1.3,0.6c-0.4,0.2-0.9,0.4-1.3,0.5
			c-0.2,0.1-0.4,0.2-0.7,0.3l-0.7,0.3c-0.4,0.2-0.9,0.3-1.3,0.5c-0.9,0.3-1.8,0.6-2.7,0.9c-0.9,0.3-1.8,0.6-2.7,0.8
			c-1.8,0.5-3.6,1-5.4,1.3c-0.9,0.2-1.8,0.4-2.7,0.5c-0.5,0.1-0.9,0.2-1.4,0.2c-0.5,0.1-0.9,0.2-1.4,0.2c-0.5,0.1-0.9,0.1-1.4,0.2
			c-0.5,0.1-0.9,0.1-1.4,0.2c-0.9,0.1-1.8,0.2-2.7,0.3c-0.4,0-0.9,0.1-1.4,0.1c-0.4,0-0.9,0.1-1.3,0.1c-0.9,0-1.8,0.1-2.7,0.1
			c-0.4,0-0.9,0-1.3,0c-0.4,0-0.9,0-1.3,0l-0.7,0l-0.7,0c-0.4,0-0.9,0-1.3-0.1c-0.4,0-0.9-0.1-1.3-0.1c-0.4,0-0.9-0.1-1.3-0.1
			c-0.9-0.1-1.7-0.1-2.6-0.3c-0.4-0.1-0.9-0.1-1.3-0.2c-0.4-0.1-0.9-0.1-1.3-0.2l-0.6-0.1l-0.6-0.1c-0.4-0.1-0.8-0.1-1.3-0.2
			c-0.4-0.1-0.8-0.2-1.3-0.2c-0.4-0.1-0.8-0.2-1.3-0.3c-0.8-0.2-1.7-0.4-2.5-0.6c-3.3-0.8-6.5-1.8-9.5-2.9c-3.1-1.2-6-2.5-8.8-3.9
			c-2.8-1.5-5.5-3-8-4.7c-5-3.4-9.5-7.2-13.3-11.2c-3.9-4-7.1-8.1-9.8-12.3c-2.7-4.1-4.9-8.2-6.6-12.1c-0.4-1-0.8-1.9-1.2-2.9
			c-0.4-1-0.7-1.9-1-2.8c-0.3-0.9-0.6-1.8-0.9-2.7c-0.1-0.4-0.3-0.9-0.4-1.3c-0.1-0.2-0.1-0.4-0.2-0.6c-0.1-0.2-0.1-0.4-0.2-0.6
			c-0.9-3.4-1.6-6.5-2-9.2c-0.4-2.7-0.6-5-0.8-6.9c0-0.5-0.1-0.9-0.1-1.3c0-0.4,0-0.8,0-1.2c0-0.4,0-0.7,0-1c0-0.3,0-0.6,0-0.8
			c0-1,0-1.5,0-1.5H58.4z M58.9,189c0,0,0,0.5,0,1.5c0,0.2,0,0.5,0,0.8c0,0.3,0,0.6,0,1c0,0.4,0,0.8,0.1,1.2c0,0.4,0.1,0.9,0.1,1.3
			c0.1,1.9,0.4,4.2,0.8,6.9c0.4,2.7,1.1,5.8,2,9.2c0.1,0.2,0.1,0.4,0.2,0.6c0.1,0.2,0.1,0.4,0.2,0.6c0.1,0.4,0.3,0.9,0.4,1.3
			c0.3,0.9,0.6,1.8,0.9,2.7c0.3,0.9,0.7,1.9,1,2.8c0.4,0.9,0.8,1.9,1.2,2.9c1.7,3.9,3.9,8,6.6,12.1c2.7,4.1,6,8.3,9.8,12.2
			c3.9,4,8.3,7.7,13.3,11.1c2.5,1.7,5.2,3.3,8,4.7c2.8,1.5,5.7,2.7,8.8,3.9c3.1,1.2,6.2,2.1,9.5,2.9c0.8,0.2,1.6,0.4,2.5,0.6
			c0.4,0.1,0.8,0.2,1.3,0.2c0.4,0.1,0.8,0.2,1.3,0.2c0.4,0.1,0.8,0.1,1.3,0.2l0.6,0.1l0.6,0.1c0.4,0.1,0.9,0.1,1.3,0.2
			c0.4,0.1,0.9,0.1,1.3,0.1c0.9,0.1,1.7,0.2,2.6,0.3c0.4,0,0.9,0.1,1.3,0.1c0.4,0,0.9,0.1,1.3,0.1c0.4,0,0.9,0,1.3,0l0.7,0l0.7,0
			c0.4,0,0.9,0,1.3,0c0.4,0,0.9,0,1.3,0c0.9,0,1.8,0,2.7-0.1c0.4,0,0.9-0.1,1.3-0.1c0.4,0,0.9-0.1,1.3-0.1c0.9-0.1,1.8-0.2,2.7-0.3
			c0.4-0.1,0.9-0.1,1.4-0.2c0.4-0.1,0.9-0.1,1.4-0.2c0.5-0.1,0.9-0.1,1.4-0.2c0.5-0.1,0.9-0.1,1.4-0.2c0.9-0.2,1.8-0.3,2.7-0.5
			c1.8-0.4,3.6-0.8,5.4-1.4c0.9-0.3,1.8-0.5,2.7-0.8c0.9-0.3,1.8-0.6,2.7-0.9c0.4-0.2,0.9-0.3,1.3-0.5l0.7-0.3
			c0.2-0.1,0.4-0.2,0.7-0.3c0.4-0.2,0.9-0.4,1.3-0.5c0.4-0.2,0.9-0.4,1.3-0.6c6.9-3.1,13.5-7.2,19.5-12.2c6-5,11.3-10.9,15.7-17.5
			c4.4-6.6,7.9-13.9,10.2-21.6c2.3-7.7,3.5-15.8,3.5-23.8c0-8.1-1.2-16.1-3.5-23.8c-2.3-7.7-5.8-15-10.2-21.6
			c-4.4-6.6-9.7-12.5-15.7-17.5c-6-5-12.6-9.1-19.5-12.1c-0.4-0.2-0.9-0.4-1.3-0.6c-0.4-0.2-0.9-0.4-1.3-0.5
			c-0.2-0.1-0.4-0.2-0.7-0.3l-0.7-0.2c-0.4-0.2-0.9-0.3-1.3-0.5c-0.9-0.3-1.8-0.6-2.6-0.9c-0.9-0.3-1.8-0.6-2.7-0.8
			c-1.8-0.5-3.6-1-5.4-1.3c-0.9-0.2-1.8-0.4-2.7-0.5c-0.4-0.1-0.9-0.2-1.3-0.2c-0.4-0.1-0.9-0.1-1.3-0.2c-0.4-0.1-0.9-0.1-1.3-0.2
			c-0.4-0.1-0.9-0.1-1.3-0.2c-0.9-0.1-1.8-0.2-2.7-0.3c-0.4,0-0.9-0.1-1.3-0.1c-0.4,0-0.9-0.1-1.3-0.1c-0.9,0-1.8-0.1-2.7-0.1
			c-0.4,0-0.9,0-1.3,0c-0.4,0-0.9,0-1.3,0l-0.7,0l-0.7,0c-0.4,0-0.9,0-1.3,0.1c-0.4,0-0.9,0.1-1.3,0.1c-0.4,0-0.9,0-1.3,0.1
			c-0.9,0.1-1.7,0.1-2.6,0.3c-0.4,0.1-0.9,0.1-1.3,0.2c-0.4,0.1-0.9,0.1-1.3,0.2l-0.6,0.1l-0.6,0.1c-0.4,0.1-0.8,0.1-1.3,0.2
			c-0.4,0.1-0.8,0.2-1.3,0.2c-0.4,0.1-0.8,0.2-1.2,0.2c-0.8,0.2-1.7,0.4-2.5,0.6c-3.3,0.8-6.4,1.8-9.5,2.9c-3,1.2-6,2.4-8.8,3.9
			c-2.8,1.4-5.4,3-7.9,4.7c-5,3.4-9.4,7.1-13.3,11.1c-3.8,3.9-7.1,8.1-9.7,12.2c-2.7,4.1-4.8,8.2-6.5,12.1c-0.4,1-0.8,1.9-1.2,2.9
			c-0.4,0.9-0.7,1.9-1,2.8c-0.3,0.9-0.6,1.8-0.9,2.7c-0.1,0.4-0.3,0.9-0.4,1.3c-0.1,0.2-0.1,0.4-0.2,0.6c-0.1,0.2-0.1,0.4-0.2,0.6
			c-0.9,3.4-1.5,6.5-2,9.2c-0.4,2.7-0.6,5-0.8,6.9c0,0.5-0.1,0.9-0.1,1.3c0,0.4,0,0.8,0,1.2c0,0.4,0,0.7,0,1c0,0.3,0,0.6,0,0.8
			c0,1,0,1.5,0,1.5H58.9z"/>
		<path class="st1" d="M195.2,146.1c0,8,6.5,14.6,14.6,14.6c8,0,14.6-6.5,14.6-14.6c0-8-6.5-14.6-14.6-14.6
			C201.7,131.5,195.2,138,195.2,146.1z"/>
		
			<ellipse transform="matrix(8.473568e-03 -1 1 8.473568e-03 64.7018 281.922)" class="st1" cx="174.5" cy="108.3" rx="16" ry="16"/>
		<path class="st1" d="M90.5,111.1c0,9.2,7.4,16.6,16.6,16.6c9.2,0,16.6-7.4,16.6-16.6c0-9.2-7.4-16.6-16.6-16.6
			C97.9,94.5,90.5,101.9,90.5,111.1z"/>
		<path class="st1" d="M80.9,149.7c0,8.3-6.7,15-15,15c-8.3,0-15-6.7-15-15c0-8.3,6.7-15,15-15C74.1,134.7,80.9,141.4,80.9,149.7z"
			/>
		<circle class="st2" cx="216.7" cy="196.6" r="11.2"/>
		<path class="st1" d="M106.6,268.5c0,7.1,5.8,12.9,12.9,12.9c7.1,0,12.9-5.8,12.9-12.9c0-7.1-5.8-12.9-12.9-12.9
			C112.4,255.6,106.6,261.4,106.6,268.5z"/>
		<path class="st1" d="M197,240.7c0,8,6.5,14.6,14.6,14.6c8,0,14.6-6.5,14.6-14.6c0-8-6.5-14.6-14.6-14.6
			C203.5,226.1,197,232.6,197,240.7z"/>
		
			<ellipse transform="matrix(0.6134 -0.7898 0.7898 0.6134 -164.2513 148.1786)" class="st2" cx="69.2" cy="241.9" rx="16" ry="16"/>
		<path class="st1" d="M47,197.8c0,8,6.5,14.6,14.6,14.6c8,0,14.6-6.5,14.6-14.6s-6.5-14.6-14.6-14.6C53.5,183.2,47,189.7,47,197.8z
			"/>
		<g>
			<g>
				<g>
					<g>
						<polygon class="st3" points="120.8,273.6 118.2,273.6 118.2,271 115.7,271 115.7,271 115.7,267.8 118.2,267.8 118.2,265.3 
							120.8,265.3 120.8,267.8 123.4,267.8 123.4,271 120.8,271 						"/>
					</g>
				</g>
			</g>
			<g>
				<polygon class="st4" points="118.2,265.3 120.8,265.3 120.8,267.8 123.4,267.8 123.4,271 120.8,271 120.8,273.6 118.2,273.6 
					118.2,271 115.7,271 115.7,271 115.7,267.8 118.2,267.8 				"/>
			</g>
			<g>
				<polygon class="st4" points="118.2,265.3 120.8,265.3 120.8,267.8 123.4,267.8 123.4,271 120.8,271 120.8,273.6 118.2,273.6 
					118.2,271 115.7,271 115.7,271 115.7,267.8 118.2,267.8 				"/>
				<path class="st5" d="M110,264.9v8.8c0,1.3,1.1,2.4,2.4,2.4h14.4c1.3,0,2.4-1.1,2.4-2.4v-8.8c0-1.3-1.1-2.2-2.4-2.2H124v0h-1.3v0
					h-6.4H115h-2.7C111,262.7,110,263.6,110,264.9z M115.7,267.8h2.6v-2.6h2.6v2.6h2.6v3.2h-2.6v2.6h-2.6V271h-2.6h0V267.8z"/>
				<path class="st5" d="M122.7,261.8c0-0.6-0.5-1.1-1.1-1.1h-4.2c-0.6,0-1.1,0.5-1.1,1.1v0.9H115v-0.9c0-1.3,1.1-2.4,2.4-2.4h4.2
					c1.3,0,2.4,1.1,2.4,2.4v0.9h-1.3V261.8z"/>
			</g>
		</g>
		<g>
			<path class="st3" d="M101.7,106.4l-0.8,5.7l-3.9,1.2c0,0-0.2,2.8-0.8,3.1c-0.6,0.3-1.8-0.1-1.8-0.1v-2.7l2.7-2.5l1.2-4.3
				L101.7,106.4z"/>
			<rect x="106.6" y="106.1" class="st3" width="8.4" height="7"/>
			<g>
				<g>
					<g>
						<g>
							<g>
								<g>
									<path class="st5" d="M97.1,117.5c0,1.5,1.2,2.7,2.7,2.7c1.5,0,2.7-1.2,2.7-2.7c0-1.5-1.2-2.7-2.7-2.7
										C98.3,114.8,97.1,116,97.1,117.5z M100.4,118.1c-0.1,0.1-0.3,0.2-0.5,0.2c-0.2,0-0.4-0.1-0.5-0.2c-0.2-0.1-0.3-0.4-0.3-0.6
										c0,0,0-0.1,0-0.1c0.1-0.4,0.4-0.7,0.8-0.7c0.4,0,0.7,0.3,0.8,0.7c0,0,0,0.1,0,0.1C100.6,117.7,100.5,118,100.4,118.1z"/>
								</g>
							</g>
							<path class="st5" d="M113.4,117.5c0,1.5,1.2,2.7,2.7,2.7c1.5,0,2.7-1.2,2.7-2.7c0-1.5-1.2-2.7-2.7-2.7
								C114.6,114.8,113.4,116,113.4,117.5z M115.3,117.5c0,0,0-0.1,0-0.1c0.1-0.4,0.4-0.7,0.8-0.7c0.4,0,0.7,0.3,0.8,0.7
								c0,0,0,0.1,0,0.1c0,0.2-0.1,0.4-0.3,0.6c-0.1,0.1-0.3,0.2-0.5,0.2c-0.2,0-0.4-0.1-0.5-0.2C115.4,118,115.3,117.7,115.3,117.5
								z"/>
							<g>
								<g>
									<g>
										<path class="st5" d="M105.3,105.4v8.7h9.9v-8.7H105.3z M107.7,108.8h1.9v-1.9h1.9v1.9h1.9v1.9h-1.9v1.9h-1.9v-1.9h-1.9
											V108.8z"/>
									</g>
								</g>
							</g>
						</g>
					</g>
					<g>
						<path class="st6" d="M93.7,115.7c0,0.4,0,0.9,0,1.3c1,0,2,0,3.1,0c0.3-1.5,1.8-2.7,3.3-2.4c1.4,0.1,2.3,1.2,2.7,2.4v0.1h10.3
							c0.2-1.1,0.9-2,1.9-2.4c0.3-0.1,0.7-0.2,1-0.2c1.3,0,2.5,0.9,2.9,2.1c0,0.2,0.1,0.3,0.1,0.5h0.5v-0.5V111v-6.6H107
							c0,0,0,0,0,0h-3c0,0,0,0,0,0h-1.2v0.7c-1.6,0-3.1,0-4.7,0c0.1,1.5-0.6,2.9-1,4.4c-0.2,0.6-0.2,1.4-0.9,1.6
							c-0.7,0.3-1.3,0.6-2,0.9c0,1.2,0,2.4,0,3.7C94.1,115.7,93.9,115.7,93.7,115.7z M106.7,109.8c0-2.2,1.8-3.9,3.9-3.9
							c2.2,0,3.9,1.8,3.9,3.9c0,2.2-1.8,3.9-3.9,3.9C108.4,113.7,106.7,112,106.7,109.8z M97.4,110.9c0.3-1.2,0.7-2.4,1-3.5
							c0.8,0,1.6,0,2.4,0c0,1.2,0,2.4,0,3.6C99.6,110.9,98.5,110.9,97.4,110.9z M94.4,114.5c0.7,0,1.4,0,2.1,0c0,0.4,0,0.8,0,1.2
							c-0.7,0-1.4,0-2.1,0C94.4,115.4,94.4,114.9,94.4,114.5z"/>
						<path class="st5" d="M104,102.7c0-0.8,0.7-1.5,1.5-1.5c0.8,0,1.5,0.7,1.5,1.5c0,0.3,0,1.3,0,1.6h-3C104,104,104,103,104,102.7
							z"/>
					</g>
				</g>
				<path class="st6" d="M103.8,104.3c0,0.1,0.1,0.3,0.3,0.3h3c0.1,0,0.3-0.1,0.3-0.3l0,0c0-0.1-0.1-0.3-0.3-0.3h-3
					C103.9,104,103.8,104.1,103.8,104.3L103.8,104.3z"/>
			</g>
		</g>
		<g>
			<path class="st5" d="M163.2,106.8c0,0.5,0.1,1,0.2,1.4c0,0,0,0,0,0c0,0,0,0.1,0,0.1c0.2,0.8,0.6,1.6,1,2.4c0.6,1,1.4,1.9,2.2,2.7
				h6.2c0.2,0,0.4,0.1,0.5,0.3l1,2.6l3.6-8.8c0.1-0.2,0.2-0.3,0.4-0.3c0.2,0,0.4,0.1,0.5,0.3l1.6,3.4h3.1c0,0,0,0,0.1,0
				c0.3-0.4,0.5-0.8,0.7-1.2c0.2-0.4,0.4-0.9,0.5-1.3c0,0,0-0.1,0-0.1c0,0,0,0,0,0c0.1-0.4,0.2-0.9,0.2-1.4c0,0,0-0.1,0-0.1
				c0-2.4-1.5-4.5-3.6-5.4c-0.1,0-0.2-0.1-0.3-0.1c-0.7-0.3-1.4-0.4-2.2-0.4c-1.9,0-3.6,0.9-4.7,2.3c-0.1,0.1-0.1,0.1-0.1,0.1
				c0,0,0,0,0,0c0,0,0,0,0,0c-1.1-1.4-2.8-2.4-4.8-2.4c0,0,0,0,0,0c0,0,0,0,0,0c-0.9,0-1.7,0.2-2.4,0.5c-1.1,0.4-2,1.2-2.8,2.5
				c-0.1,0.3-0.3,0.5-0.4,0.8C163.3,105.3,163.2,106,163.2,106.8C163.2,106.8,163.2,106.8,163.2,106.8z M183.1,106.8
				C183.1,106.8,183.1,106.7,183.1,106.8c-0.1-2.2-2-4.1-4.1-4.2c-0.2,0-0.3-0.2-0.3-0.5c0-0.2,0.2-0.4,0.4-0.4
				c2.6,0.1,4.8,2.3,4.9,4.9c0,0.1,0,0.1,0,0.1c-0.1,0.1-0.2,0.2-0.4,0.2C183.3,107,183.1,106.9,183.1,106.8z"/>
			<path class="st5" d="M173.8,117.9c0.1,0.2,0.2,0.3,0.4,0.3c0,0,0,0,0,0c0.2,0,0.4-0.1,0.4-0.3l3.6-9l1.3,2.7
				c0.1,0.2,0.2,0.3,0.4,0.3h2.8c-2.1,2.7-5.1,4.7-5.8,5.2c-0.6,0.4-1.4,1-2.1,1.3c-0.6,0.4-1,0.6-1,0.6s0,0,0,0c0,0,0,0,0,0
				s-0.4-0.2-1-0.6c-0.6-0.4-1.4-0.9-2.1-1.3c-0.4-0.3-1.9-1.3-3.4-2.6l4.9,0L173.8,117.9z"/>
		</g>
		<g>
			<polygon class="st3" points="75.5,244.2 63.7,237.4 62.7,238 61.8,239.8 62.4,240.8 73.9,247.2 			"/>
			<g>
				<g>
					
						<rect x="69.8" y="243.7" transform="matrix(0.4974 -0.8675 0.8675 0.4974 -176.0277 183.951)" class="st6" width="1.8" height="0.4"/>
					
						<rect x="71.7" y="244.7" transform="matrix(0.4974 -0.8675 0.8675 0.4974 -176.0178 186.0485)" class="st6" width="1.8" height="0.4"/>
					
						<rect x="70.9" y="244.4" transform="matrix(0.4973 -0.8676 0.8676 0.4973 -176.2619 185.0254)" class="st6" width="1.3" height="0.4"/>
					
						<rect x="72.7" y="245.5" transform="matrix(0.4973 -0.8676 0.8676 0.4973 -176.2533 187.128)" class="st6" width="1.3" height="0.4"/>
					<g>
						<path class="st5" d="M62.7,238.8c0,0,0.5-1.2,1.4-0.6l6.7,3.9l-1.3,2.2l-6.9-4C62.7,240.3,62.1,240,62.7,238.8z"/>
					</g>
				</g>
			</g>
			<g>
				<path class="st4" d="M64.1,237.9l11.1,6.4l-0.2,0.3l0,0l-1.1,2l0,0l-0.2,0.3l-11.2-6.4c0,0-0.7-0.6,0-1.9
					C62.5,238.7,63.2,237.4,64.1,237.9z"/>
				<path class="st6" d="M61.7,239.2C61.7,239.2,61.7,239.2,61.7,239.2C61.7,239.2,61.7,239.2,61.7,239.2
					C61.7,239.2,61.7,239.2,61.7,239.2z"/>
				<path class="st6" d="M62.5,237.9c0.1-0.1,0.2-0.2,0.3-0.3C62.6,237.7,62.5,237.8,62.5,237.9C62.5,237.9,62.5,237.9,62.5,237.9z"
					/>
			</g>
			<g>
				<polygon class="st4" points="60.9,238.1 60.9,238.1 60.9,238.1 				"/>
				<polygon class="st4" points="61.1,237.7 61.1,237.7 61.1,237.7 				"/>
				<path class="st7" d="M61.1,237.7L61.1,237.7c0.1-0.2,0.4-0.2,0.6,0l0.4,0.2c0.1-0.1,0.2-0.1,0.3-0.1c0,0,0,0,0,0
					c-0.2,0.3-0.5,0.7-0.7,1.3c0,0,0,0-0.1,0c-0.1-0.1-0.1-0.2-0.1-0.3l-0.4-0.2c-0.3-0.1-0.4-0.4-0.3-0.6l0,0l0,0L61.1,237.7
					L61.1,237.7z"/>
				<polygon class="st3" points="56,234.8 61.1,237.7 60.9,238.1 56.4,235.5 				"/>
			</g>
			<g>
				<path class="st4" d="M64.1,237.9l11.1,6.4l-0.2,0.3l0,0l-1.1,2l0,0l-0.2,0.3l-11.2-6.4c0,0-0.7-0.6,0-1.9
					C62.5,238.7,63.2,237.4,64.1,237.9z"/>
				<path class="st6" d="M62.1,240.8L62.1,240.8l11.3,6.5l-0.2,0.4l0.7,0.4l0.2-0.3l0.4-0.7l1.3-2.4l0,0l0.5-0.8l-0.7-0.4l-0.2,0.4
					l-11.3-6.5c-0.5-0.3-1-0.1-1.4,0.2c-0.1,0.1-0.2,0.2-0.3,0.3c0,0,0,0,0,0c-0.2,0.3-0.5,0.7-0.7,1.3c0,0,0,0,0,0c0,0,0,0,0,0
					C61.5,239.7,61.5,240.4,62.1,240.8z M62.5,238.7c0,0,0.6-1.3,1.6-0.8l11.1,6.4l-0.2,0.3l0,0l-1.1,2l0,0l-0.2,0.3l-11.2-6.4
					C62.5,240.6,61.8,239.9,62.5,238.7z"/>
			</g>
			<g>
				<polygon class="st8" points="74.5,247.1 75.8,244.7 75.8,244.7 75.7,244.9 80.6,247.7 79.3,249.9 				"/>
				<polygon class="st6" points="80.6,247.7 81.3,246.4 82.2,246.9 79.5,251.7 78.6,251.2 79.3,249.9 				"/>
			</g>
		</g>
		<g>
			<rect x="63.1" y="141.5" class="st9" width="6.9" height="2.1"/>
			<path class="st10" d="M59.4,147.5c0-2.8,1.9-5,4.3-5h5.8c2.4,0,4.3,2.2,4.3,5v11.2c0,0.2,0,0.3,0,0.5c0,0,0,0.1,0,0.1
				c0,0.1,0,0.2,0,0.2c0,0,0,0,0,0.1h0c-0.1,0.2-0.3,0.3-0.5,0.3H59.9c-0.2,0-0.4-0.1-0.5-0.3h0c0,0,0,0,0-0.1c0-0.1,0-0.2,0-0.2
				c0,0,0,0,0-0.1c0-0.1,0-0.3,0-0.5V147.5z"/>
			<path class="st11" d="M60.5,153c0,1.6,1.1,2.8,2.5,2.8h7.3c1.4,0,2.5-1.3,2.5-2.8v-1.9c0-1.6-1.1-2.8-2.5-2.8h-7.3
				c-1.4,0-2.5,1.3-2.5,2.8V153z"/>
			<rect x="62.2" y="149.5" class="st12" width="8.7" height="1.1"/>
			<rect x="62.2" y="151.6" class="st12" width="8.7" height="1.1"/>
			<rect x="63.2" y="153.7" class="st12" width="6.8" height="1.1"/>
			<g>
				<rect x="64.8" y="138.6" class="st13" width="0.3" height="2.8"/>
				<rect x="65.6" y="138.6" class="st13" width="0.3" height="2.8"/>
				<rect x="70.3" y="138.6" class="st13" width="0.3" height="2.8"/>
				<rect x="69.6" y="138.6" class="st13" width="0.3" height="2.8"/>
				<rect x="66.4" y="138.6" class="st13" width="0.3" height="2.8"/>
				<rect x="67.2" y="138.6" class="st13" width="0.3" height="2.8"/>
				<rect x="64" y="138.6" class="st13" width="0.3" height="2.8"/>
				<rect x="68.8" y="138.6" class="st13" width="0.3" height="2.8"/>
				<rect x="63.3" y="138.6" class="st13" width="0.3" height="2.8"/>
				<rect x="62.5" y="138.6" class="st13" width="0.3" height="2.8"/>
				<rect x="68" y="138.6" class="st13" width="0.3" height="2.8"/>
				<rect x="61.7" y="138.6" class="st13" width="0.3" height="2.8"/>
				<rect x="71.1" y="138.6" class="st13" width="0.3" height="2.8"/>
				<line class="st14" x1="71.1" y1="138.6" x2="70.7" y2="138.6"/>
				<rect x="70.7" y="138.6" class="st15" width="0.4" height="2.8"/>
				<line class="st14" x1="70.3" y1="138.6" x2="69.9" y2="138.6"/>
				<rect x="69.9" y="138.6" class="st15" width="0.4" height="2.8"/>
				<line class="st14" x1="69.6" y1="138.6" x2="69.1" y2="138.6"/>
				<rect x="69.1" y="138.6" class="st15" width="0.4" height="2.8"/>
				<line class="st14" x1="68.8" y1="138.6" x2="68.3" y2="138.6"/>
				<rect x="68.3" y="138.6" class="st15" width="0.4" height="2.8"/>
				<line class="st14" x1="68" y1="138.6" x2="67.5" y2="138.6"/>
				<rect x="67.5" y="138.6" class="st15" width="0.4" height="2.8"/>
				<line class="st14" x1="67.2" y1="138.6" x2="66.8" y2="138.6"/>
				<rect x="66.8" y="138.6" class="st15" width="0.4" height="2.8"/>
				<line class="st14" x1="66.4" y1="138.6" x2="66" y2="138.6"/>
				<rect x="66" y="138.6" class="st15" width="0.4" height="2.8"/>
				<line class="st14" x1="65.6" y1="138.6" x2="65.2" y2="138.6"/>
				<rect x="65.2" y="138.6" class="st15" width="0.4" height="2.8"/>
				<line class="st14" x1="64.8" y1="138.6" x2="64.4" y2="138.6"/>
				<rect x="64.4" y="138.6" class="st15" width="0.4" height="2.8"/>
				<line class="st14" x1="64" y1="138.6" x2="63.6" y2="138.6"/>
				<rect x="63.6" y="138.6" class="st15" width="0.4" height="2.8"/>
				<line class="st14" x1="63.3" y1="138.6" x2="62.8" y2="138.6"/>
				<rect x="62.8" y="138.6" class="st15" width="0.4" height="2.8"/>
				<line class="st14" x1="62.5" y1="138.6" x2="62" y2="138.6"/>
				<rect x="62" y="138.6" class="st15" width="0.4" height="2.8"/>
			</g>
		</g>
		<g>
			<g>
				<path class="st3" d="M62.2,156.2c0.8,0.5,1.1,1.6,0.7,2.4l-3.1-2.1C60.3,155.8,61.4,155.7,62.2,156.2z"/>
				<path class="st3" d="M60.1,159.4c-0.8-0.5-1.1-1.6-0.7-2.4l3.1,2.1C61.9,159.7,60.9,159.9,60.1,159.4z"/>
			</g>
		</g>
		<g>
			<g>
				<path class="st16" d="M210.4,199.5c0-3,2.1-4.9,4.9-5.5v-4.7h-0.4c-0.3,0-0.6-0.3-0.6-0.6c0-0.3,0.3-0.6,0.6-0.6h1.8v11.4H210.4
					z"/>
				<path class="st17" d="M216.7,188h1.8c0.3,0,0.6,0.3,0.6,0.6c0,0.3-0.3,0.6-0.6,0.6H218v4.7c2.8,0.6,4.9,2.6,4.9,5.5h-6.3V188z"
					/>
				<path class="st18" d="M223,199.5C223,199.5,223,199.5,223,199.5c0,3.5-2.7,5.7-6.2,5.7c0,0,0,0-0.1,0v-5.7H223z"/>
				<path class="st5" d="M210.4,199.5C210.4,199.5,210.4,199.5,210.4,199.5l6.3-0.1v5.7C213.3,205.2,210.4,202.9,210.4,199.5z"/>
			</g>
		</g>
		<g>
			<g>
				<path class="st6" d="M63.7,192.4h-2c-0.2,0-0.3-0.1-0.3-0.3c0-0.2,0.1-0.3,0.3-0.3h2c0.2,0,0.3,0.1,0.3,0.3
					C64,192.3,63.8,192.4,63.7,192.4z"/>
				<path class="st6" d="M63.7,190.6h-2c-0.2,0-0.3-0.1-0.3-0.3c0-0.2,0.1-0.3,0.3-0.3h2c0.2,0,0.3,0.1,0.3,0.3
					C64,190.5,63.8,190.6,63.7,190.6z"/>
			</g>
			<g>
				<path class="st5" d="M59.5,193c-1,0-2.3,0.3-2.8,0.4v4.5c0,0,1.1,2.2,4.8,2.2c3.7,0,4.2-2.4,4.2-2.4v-4.4
					c-0.6-0.1-2.2-0.4-3.4,0.1C62.3,193.4,60.8,193,59.5,193z M61.4,197.6c0-0.2,0.1-0.3,0.3-0.3h2c0.2,0,0.3,0.1,0.3,0.3
					c0,0.2-0.1,0.3-0.3,0.3h-2C61.5,197.9,61.4,197.8,61.4,197.6z M61.4,195.9c0-0.2,0.1-0.3,0.3-0.3h2c0.2,0,0.3,0.1,0.3,0.3
					c0,0.2-0.1,0.3-0.3,0.3h-2C61.5,196.2,61.4,196.1,61.4,195.9z M61.4,194.2c0-0.2,0.1-0.3,0.3-0.3h2c0.2,0,0.3,0.1,0.3,0.3
					c0,0.2-0.1,0.3-0.3,0.3h-2C61.5,194.6,61.4,194.4,61.4,194.2z"/>
				<path class="st6" d="M55.9,187v0.2v3.4v2.3v4.6c0,1.9,1.5,3.4,3.4,3.4h0.6c0,0.3,0.4,0.6,0.9,0.7v0.1v1.8h0
					c-0.3,0-0.6,0.3-0.6,0.6v2c0,0.3,0.3,0.6,0.6,0.6h0v3.6h0.8v-3.6h0c0.3,0,0.6-0.3,0.6-0.6v-2c0-0.3-0.3-0.6-0.6-0.6h0v-1.8v-0.1
					c0.5-0.1,0.9-0.4,0.9-0.7h0.6c1.9,0,3.4-1.5,3.4-3.4V193v-2.3v-3.4V187c0-0.4-0.4-0.8-0.8-0.8h-9.2
					C56.2,186.2,55.9,186.6,55.9,187z M56.7,188.4h3.4h2.2h3.4v3.4v0.2v1.1v0.3v4.4c0,0-0.5,2.4-4.2,2.4c-3.7,0-4.8-2.2-4.8-2.2
					v-4.5v-0.3v-0.5v-0.8V188.4z"/>
			</g>
		</g>
		<g>
			<polygon class="st19" points="210.4,139.6 215.2,152.7 213.9,155.1 211.4,154.4 206.4,140.9 			"/>
			<g>
				<polygon class="st20" points="206.7,140.9 211.6,154.1 213.4,154.9 214,154.6 214.9,152.9 210,139.7 210.7,139.4 215.6,152.8 
					214.4,155.3 215.3,157.8 214.9,157.9 214.9,157.9 214.5,158.1 213.5,155.6 211,154.5 206,141.2 				"/>
				<g>
					<polygon class="st5" points="212.2,146.3 214.5,152.6 213.8,154.2 213.3,154.4 211.7,153.7 209.3,147.4 					"/>
				</g>
				<g>
					<path class="st5" d="M205.8,139.8l-0.9-2.3c-0.4-1.1,0.2-2.4,1.3-2.8l1.6,4.4L205.8,139.8z"/>
					<path class="st21" d="M206.2,134.7c1.1-0.4,2.4,0.2,2.8,1.3l0.9,2.3l-2,0.8L206.2,134.7z"/>
					<path class="st22" d="M209.9,138.3l0.7-0.3c0.4-0.2,0.9,0.1,1,0.5c0.2,0.4,0,0.9-0.4,1.1l-2.8,1l-0.2-0.6l-0.4-1L209.9,138.3z"
						/>
					<path class="st20" d="M205.1,140.1l0.7-0.3l2-0.8l0.4,1l0.2,0.6l-2.8,1c-0.4,0.2-0.9-0.1-1-0.5
						C204.5,140.7,204.7,140.2,205.1,140.1z"/>
				</g>
			</g>
		</g>
		<g>
			<g>
				<path class="st5" d="M215.7,233.5C215.7,233.5,215.7,233.6,215.7,233.5l2.1-1.5c0,0-0.5-4.9-5.8-5.1c-5.3,0.3-5.8,5.1-5.8,5.1
					l2.1,1.6c0.1-0.1,0.1-0.1,0.1-0.1l0,0c0.9-1,2.3-1.6,4.2-1.3C212.5,232.2,214.2,232.2,215.7,233.5L215.7,233.5
					C215.6,233.5,215.6,233.5,215.7,233.5z M213.8,230.1h-1.3v1.3h-1.1v-1.3h-1.3V229h1.3v-1.3h1.1v1.3h1.3V230.1z"/>
				<g>
					<g>
						<path class="st22" d="M212.1,246.5l0.1,0.2l0,0l0.1-0.2l1.7-3.2l0.1-0.1l0.1-0.1l0-0.1l-0.2-0.7c0.2-0.1,0.4-0.2,0.6-0.4
							c0.6,1,2.7,0.9,2.7,0.9c-0.6-1.2-0.1-1.3,0.2-4.3l0,0c0.1-0.4,0.1-0.8,0-1.2c-0.2-1.6-0.8-2.6-1.6-3.4c0,0-0.1-0.1-0.1-0.1
							c0,0,0,0,0,0v0c-1.4-1.3-3.1-1.3-3.1-1.3c-1.8-0.3-3.2,0.4-4.2,1.3l0,0c0,0,0,0-0.1,0.1c-0.4,0.4-1.7,2-1.5,4.6
							c0.2,3,0.7,3.1,0.2,4.3c0,0,1.9,0.1,2.6-0.8c0.2,0.1,0.3,0.1,0.4,0.1c0.2,0.1,0.3,0.2,0.5,0.3l-0.1,0.5l0,0l0.1,0.3
							L212.1,246.5z M213.8,242.1C213.8,242.1,213.8,242.2,213.8,242.1c-0.6,0.3-1.2,0.4-1.8,0.4c-1.2,0-2.3-0.5-3-1.3
							c-0.7-1-0.8-2.4-0.6-3.2c2.9-1.1,4.2-3.1,4.2-3.1c1.1,3.1,3.8,2.5,3,5.2c-0.2,0.7-0.5,1.2-0.9,1.5
							C214.4,241.8,214.1,242,213.8,242.1z M212.2,246.3l-1.7-3.4l0,0l0.1-0.5c0.4,0.2,0.9,0.2,1.4,0.2c0.6,0,1.1-0.1,1.6-0.3
							l0.2,0.7L212.2,246.3z"/>
						<path class="st20" d="M213.4,238.3c0-0.2,0.2-0.4,0.4-0.4c0.2,0,0.4,0.2,0.4,0.4c0,0.2-0.2,0.4-0.4,0.4
							C213.6,238.6,213.4,238.5,213.4,238.3z"/>
						<path class="st20" d="M210.4,238.6c-0.2,0-0.4-0.2-0.4-0.4c0-0.2,0.2-0.4,0.4-0.4c0.2,0,0.4,0.2,0.4,0.4
							C210.7,238.4,210.6,238.6,210.4,238.6z"/>
						<path class="st22" d="M214.2,243.1c1.8,0.4,3.3,1.4,4.2,2.7c0.8,1,1.2,2.2,1.2,3.4h-4.7h-2.4v-2.5h2L214.2,243.1z"/>
					</g>
				</g>
			</g>
			<g>
				<path class="st22" d="M202,247.2l0.3-0.1c0.8-0.3,1.5-0.2,2,0.1l0.2,0.1l0.1,0l0-0.4l0.1-1.5c0-0.7-0.5-1.3-1.2-1.4
					c-0.5,0-0.9,0.2-1.1,0.6c-0.1,0.2-0.2,0.4-0.2,0.7L202,247.2z M202.4,246.6l0.1-1.4c0-0.2,0.1-0.3,0.2-0.5
					c0.2-0.3,0.5-0.4,0.8-0.4c0.5,0,0.9,0.4,0.9,0.9l-0.1,1.3C203.7,246.5,203.1,246.4,202.4,246.6z"/>
				<path class="st23" d="M204.8,247.1C204.9,247.1,204.9,247.1,204.8,247.1L204.8,247.1L204.8,247.1L204.8,247.1z"/>
			</g>
			<g>
				<path class="st22" d="M204.8,247.3C204.8,247.3,204.8,247.3,204.8,247.3L204.8,247.3l0.3,0c0.8-0.1,1.5,0.3,1.9,0.6l0.2,0.2
					l0.6-1.8c0.2-0.7-0.1-1.4-0.8-1.7c-0.2-0.1-0.4-0.1-0.6-0.1c-0.2,0-0.5,0.1-0.7,0.3c-0.2,0.2-0.3,0.3-0.4,0.6l0,0.1l-0.5,1.3
					L204.8,247.3L204.8,247.3z M205.4,246.9l0.5-1.3c0.1-0.2,0.2-0.3,0.3-0.4c0.2-0.2,0.6-0.3,0.9-0.2c0.5,0.2,0.7,0.7,0.6,1.2
					l-0.4,1.3C206.7,247.2,206.1,246.8,205.4,246.9z"/>
				<path class="st5" d="M201.9,249.1c0,0.7,0.5,1.3,1.2,1.3c0.3,0,0.6-0.1,0.8-0.3c0.1,0,0.1-0.1,0.1-0.1c0,0,0,0,0.1-0.1
					c0,0,0-0.1,0.1-0.1c0.1-0.1,0.2-0.3,0.2-0.5c0-0.1,0-0.1,0-0.2l0-0.6l0-0.6l0-0.5l0-0.1l0,0l-0.1,0l0,0c0,0-0.1,0-0.1-0.1
					c-0.3-0.2-0.9-0.3-1.6-0.2c0,0-0.2,0.1-0.2,0.1c-0.2,0.1-0.3,0.1-0.5,0.2l0,0L201.9,249.1z M202.3,247.4l0.6-0.2
					c-0.3,0.2-0.3,0.4-0.3,0.4c-0.6,1.8,0,2.4,0,2.4C201.7,249.5,202.3,247.4,202.3,247.4z"/>
				<path class="st5" d="M204.3,250.1c0,0,0.1-0.2,0.2-0.2c0,0,0,0,0,0c0,0,0,0,0-0.1c0.1-0.1,0.1-0.3,0.2-0.4c0-0.1,0-0.1,0-0.2
					l0-0.6l0.1-1.2c0.4-0.1,0.9-0.1,0.9-0.1v0c0.7,0.1,1.2,0.5,1.4,0.8l0,0l-0.4,1.2l-0.2,0.6c-0.1,0.2-0.2,0.4-0.4,0.6
					c-0.3,0.3-0.8,0.4-1.2,0.2C204.7,250.6,204.4,250.4,204.3,250.1C204.3,250.1,204.3,250.1,204.3,250.1z"/>
			</g>
			<path class="st22" d="M207.6,248.1c0,0,0-0.1,0.1-0.1c0,0,0,0,0,0c0,0,0-0.1,0-0.1c0,0,0,0,0,0l0,0l0.6-1.8
				c0.2-0.7-0.1-1.4-0.8-1.7c-0.2-0.1-0.4-0.1-0.6-0.1c0.9-0.6,2-1.1,3.2-1.4l-0.3,3.6h2v2.5h-4.7l0.3-1
				C207.5,248.2,207.5,248.1,207.6,248.1z"/>
		</g>
		<g>
			<g>
				<path class="st2" d="M165.8,267.1c0,7.3,5.9,13.1,13.1,13.1c7.3,0,13.1-5.9,13.1-13.1c0-7.3-5.9-13.1-13.1-13.1
					C171.7,254,165.8,259.8,165.8,267.1z"/>
			</g>
		</g>
		<g>
			<g>
				<g>
					<g>
						<path class="st3" d="M182.7,260.8c0-1.8-1.5-3.3-3.3-3.3c-1.8,0-3.3,1.5-3.3,3.3c0,1.8,1.5,3.3,3.3,3.3
							C181.2,264.1,182.7,262.6,182.7,260.8z"/>
					</g>
					<g>
						<path class="st3" d="M184.4,264.4c2,0.8,2,2.2,2,2.3l0,5c0,0,0,0.5-0.3,0.7c-0.1,0.2-0.4,0.2-0.6,0.2l-0.2,0L184.4,264.4z
							 M172.6,274.6v-7.5c0.3-3.1,3.8-3.1,3.9-3h5.4l-1.7,6.3h-1c-0.8,0-1.4,0.6-1.4,1.4c0,0.8,0.6,1.4,1.4,1.4h0.9h2.9l0,2.3l-8,0
							l0-7.6l-0.5,0.7v5.9l0,0.2c0,0.6-0.5,1.1-1.1,1.1C173.1,275.6,172.6,275.2,172.6,274.6L172.6,274.6z M179.8,272.7l-0.4,0
							c-0.5,0-0.9-0.4-0.9-0.9c0-0.5,0.4-0.9,0.9-0.9h0.8C180,271.3,179.7,272.2,179.8,272.7z"/>
					</g>
				</g>
			</g>
			<path class="st5" d="M184.9,272.7l-0.8-8.2c-0.3-0.1-0.5-0.3-1.7-0.4c0,0-2.4,8.4-2.2,8.6c0,0,0,0,0.1,0L184.9,272.7L184.9,272.7
				z"/>
		</g>
	</g>
	<linearGradient id="SVGID_1_" gradientUnits="userSpaceOnUse" x1="185.3757" y1="142.0144" x2="185.3757" y2="122.1009">
		<stop  offset="0" style="stop-color:#432658"/>
		<stop  offset="1" style="stop-color:#000D34"/>
	</linearGradient>
	<path class="st24" d="M184.2,142L184.2,142v-19.9l0,0c1.3,0,2.3,1,2.3,2.3v15.4C186.5,141,185.5,142,184.2,142z"/>
	<linearGradient id="SVGID_2_" gradientUnits="userSpaceOnUse" x1="185.3757" y1="152.376" x2="185.3757" y2="144.5747">
		<stop  offset="0" style="stop-color:#432658"/>
		<stop  offset="1" style="stop-color:#000D34"/>
	</linearGradient>
	<path class="st25" d="M184.2,152.4L184.2,152.4l0-7.8l0,0c1.3,0,2.3,1,2.3,2.3v3.2C186.5,151.4,185.5,152.4,184.2,152.4z"/>
	<g>
		<linearGradient id="SVGID_3_" gradientUnits="userSpaceOnUse" x1="198.3365" y1="154.8715" x2="204.7712" y2="154.8715">
			<stop  offset="0" style="stop-color:#F1BFBD"/>
			<stop  offset="1" style="stop-color:#F6D8BF"/>
		</linearGradient>
		<path class="st26" d="M198.3,152.5c0,0,5.5-1.5,6.4,4.9L198.3,152.5z"/>
		<linearGradient id="SVGID_4_" gradientUnits="userSpaceOnUse" x1="151.9004" y1="183.2405" x2="205.2126" y2="183.2405">
			<stop  offset="0" style="stop-color:#FFA98E"/>
			<stop  offset="1" style="stop-color:#FFC5A4"/>
		</linearGradient>
		<path class="st27" d="M203,165.5C203,165.5,203,165.5,203,165.5c-1.4,2.9-3.2,6-4.6,8.2c0,0,0,0,0,0.1c-0.9,1.4-1.6,2.5-2,3
			c-1.4,1.7-6.3,6.4-7.3,7.2c0,0-0.1,0.1-0.2,0.2c-0.7,0.8-2.8,3.7-5.4,7.3c-6.4,8.9-15.9,22.6-15.9,22.6s-15.8-4.8-15.6-12.2
			c0,0,9.6-9.7,12.4-12.8c2.8-3.1,11.7-14.6,12.4-16.3c0,0,0-0.1,0.1-0.1c0.8-1.7,3.1-5.6,6.2-9c0.9-1,2.1-2.3,3.3-3.5
			c3.6-3.6,7.8-7.5,10.3-7.8c2.9-0.4,7.5,2.1,8.5,6.1C205.5,159.8,204.5,162.5,203,165.5z"/>
		<path class="st28" d="M202.9,165.6c-1.4,2.8-3.2,5.9-4.6,8.1c0,0,0,0,0,0.1c-0.9,1.4-1.6,2.5-2,3c-1.4,1.7-6.3,6.4-7.3,7.2
			c0,0-0.1,0.1-0.2,0.2l-4.9,2.7l-3.6-14.9l6.1-11.7c0,0-0.5,9.5,1.2,11.4c2.4,2.7,7.6,3.1,9.7,1.9
			C199.2,172.5,202.4,166.5,202.9,165.6z"/>
		<path class="st29" d="M198.3,173.8c-0.9,1.4-1.6,2.5-2,3c-1.4,1.7-6.3,6.4-7.3,7.2c-0.3,0.2-2.6,3.4-5.6,7.5l-6.6-18.8
			c0.8-1.7,3.1-5.6,6.2-9c0.9-1,2.1-2.3,3.3-3.5l0,0c0,0-0.5,14.5,0,16c0.5,1.5,5.1,2.6,6.8,2.4
			C194.8,178.4,197.9,174.3,198.3,173.8z"/>
		<linearGradient id="SVGID_5_" gradientUnits="userSpaceOnUse" x1="130.5736" y1="350.2525" x2="130.5736" y2="123.8301">
			<stop  offset="0" style="stop-color:#FFA98E"/>
			<stop  offset="1" style="stop-color:#FFC5A4"/>
		</linearGradient>
		<path class="st30" d="M181.4,254.9c0,0-5.1,5-11.4,11c-8.6,8.1-19.4,18-22.8,19.3c-5.8,2.3-16.6,1-16.6,1l0.7,3.2l12.4,60.7H103
			c0,0-6.1-70.6-6.9-78.2c0-0.4-0.1-0.6-0.1-0.7c-0.3-1.5-13.4-26.9-14.8-31.4c-1.4-4.4,2.2-29,2-30.5c0,0,0,0,0,0
			c-0.1-1-1.3-6.3-2.2-11.3c0-0.2-0.1-0.4-0.1-0.6c-0.5-2.9-1-5.7-1.1-7.3c0-0.1,0-0.2,0-0.3c0-0.3,0-0.6,0-0.8c0,0,0-0.1,0-0.1
			c0.2-1.1,6.5-11.5,10.3-18.6c5.1-9.5,5.5-15.3,6.3-15.5c0.7-0.3,2.2,0.6,4,2.3c0,0,0,0,0,0c0,0,0,0,0,0c1.6,1.5,3.1,3.4,3.5,4.9
			c1,3.3-0.1,23.4-2.8,29.1c0,0-1.3,1.4-3.9,2c0,0,1.3,10.5,8.1,21.4c0,0,0,0,0,0s19.2-19.7,21.5-22.1c2.3-2.5,21.5-35.5,24.1-40
			c2.6-4.6,14.5-26.4,17.2-27.7s6.1-1.1,8.3,0c2.2,1.1,2.9,5.3,2.8,6.5c-0.1,1.2-13.7,30.6-14.9,33.5c-1.1,2.8-13.4,28.8-13.4,28.8
			S176.8,227.9,181.4,254.9z"/>
		<path class="st28" d="M170,265.9c-8.6,8.1-19.4,18-22.8,19.3c-5.8,2.3-16.6,1-16.6,1l0.7,3.2l-28.3-5.9c0,0-3-4.8-6.9-11.6
			c0-0.4-0.1-0.6-0.1-0.7c-0.3-1.5-13.4-26.9-14.8-31.4c0,0,24.3,0.9,28.6-1c4.3-1.9,50.3-19.4,50.3-19.4L170,265.9z"/>
		<path class="st29" d="M173.6,231.4c0,0,13-5.5,15.4-5.2c2.4,0.3,6.6,8.6,5.1,13.4s-11.1,13.7-12.7,15.3
			C181.4,254.9,171.8,233.5,173.6,231.4z"/>
		<linearGradient id="SVGID_6_" gradientUnits="userSpaceOnUse" x1="89.4546" y1="163.0994" x2="98.0093" y2="163.0994">
			<stop  offset="0" style="stop-color:#F1BFBD"/>
			<stop  offset="1" style="stop-color:#F6D8BF"/>
		</linearGradient>
		<path class="st31" d="M89.5,171.7c0,0,6.5-7.6,8.6-11.5c0,0-0.9-5.1-2.3-5.6C95.7,154.5,91.2,164.5,89.5,171.7z"/>
		<path class="st28" d="M104.3,212.9c-0.4-0.4-7.4-5.1-21.1-3.3c0,0,0,0,0,0c-0.1-0.6-1.3-6.1-2.2-11.3c0-0.2-0.1-0.4-0.1-0.6
			c-0.5-2.9-1-5.7-1.1-7.3c0-0.1,0-0.2,0-0.3c0-0.4,0-0.7,0-0.8c0,0,0-0.1,0-0.1c0,0,11,2.1,17.5-3.2c3.3-2.6,5.3-11.1,5.6-17.9
			c0.3-6.6-2.4-10.5-2.5-10.7c1.6,1.5,3.1,3.4,3.5,4.9c1,3.3-0.1,23.4-2.8,29.1c0,0-1.3,1.4-3.9,2C97.3,193.2,97.5,202,104.3,212.9z
			"/>
		<path class="st29" d="M109.8,265.4c0,0,49.3,1.2,51,1.8c1.7,0.6-3.5,10.4-3.5,10.4l14.8-13.6L109.8,265.4z"/>
		<linearGradient id="SVGID_7_" gradientUnits="userSpaceOnUse" x1="119.8509" y1="350.2525" x2="119.8509" y2="271.3572">
			<stop  offset="0" style="stop-color:#FFC5A4"/>
			<stop  offset="1" style="stop-color:#F5816D"/>
		</linearGradient>
		<path class="st32" d="M130.6,286.3c0,0-8.4-10.7-15.6-10.4c-5.1,0.3-19-4.5-19-4.5s0.9,10.1,1.4,15.7c0,0,14.8,7.6,31.7,6.9
			l14.5,56.3L130.6,286.3z"/>
		<path class="st33" d="M95.7,154.5l-0.7,1.9c0,0,2.2,2.8,2,5.3l1-1.6C98,160.1,97.9,156.1,95.7,154.5z"/>
		<path class="st34" d="M89.5,172c0,0,4-3.8,7.9-10.9c0,0-5.7,8.1-7.4,8.5L89.5,172z"/>
		<path class="st29" d="M130.6,286.3c0,0-5.2-0.6-10.7-3.7c0,0,7.3,9.5,12.1,10.7L130.6,286.3z"/>
		<polygon class="st29" points="100.7,205.4 105.5,232.6 105,214.2 		"/>
		<path class="st35" d="M96.8,155.8L91.2,168l6.6-9.3C97.8,158.7,97.3,157.1,96.8,155.8z"/>
	</g>
	<path class="st29" d="M162.1,212.2c0,0,12.9-9.1,18.6-12.3c5.7-3.2,12.4-4.9,14.3-4.5c1.9,0.5,3.8,3.8,4.3,8.4
		c0.5,4.6,0.2,6.3-1.1,9.4c-0.9,2.2-16.9,11.5-20.7,13.8c-2.4,1.4-6.2,4.4-6.2,4.4S162.6,215.2,162.1,212.2z"/>
	<path class="st36" d="M185.3,112c-0.5,54.9-0.4,94.3-2,144.4c-0.1,3.4-2.8,6.2-6.2,6.4c-24,1.3-40.2,2-64.3,1.4
		c-3.5-0.1-6.3-2.9-6.4-6.3c-2-52.2-2.4-88-2.9-145.2c0-3.5,2.8-6.5,6.3-6.6c4.3-0.2,8.4-0.3,12.4-0.5c15.5-0.5,29.1-0.7,45.9-0.4
		c3.4,0.1,7,0.1,10.7,0.3C182.5,105.5,185.3,108.4,185.3,112z"/>
	<linearGradient id="SVGID_8_" gradientUnits="userSpaceOnUse" x1="144.4072" y1="265.3076" x2="144.4072" y2="105.923">
		<stop  offset="0" style="stop-color:#000D34"/>
		<stop  offset="1" style="stop-color:#432658"/>
	</linearGradient>
	<path class="st37" d="M112.8,265.1c24.2,0.6,40.4,0,64.3-1.4c3.4-0.2,6.1-3,6.2-6.4c1.5-50.2,1.5-89.5,2-144.4
		c0-3.6-2.8-6.5-6.4-6.6c-26.7-0.8-44.6-0.4-69.1,0.6c-3.5,0.1-6.3,3.1-6.3,6.6c0.5,57.2,0.9,93.1,2.9,145.2
		C106.5,262.2,109.3,265,112.8,265.1z"/>
	
		<image style="overflow:visible;" width="375" height="812" xlink:href="../../../img/app.png"  transform="matrix(0.1954 0 0 0.1795 107.7747 109.4525)">
	</image>
	<linearGradient id="SVGID_9_" gradientUnits="userSpaceOnUse" x1="108.9288" y1="247.2481" x2="181.3589" y2="247.2481">
		<stop  offset="0" style="stop-color:#B3E8FF"/>
		<stop  offset="1" style="stop-color:#0456A6"/>
	</linearGradient>
	<polygon class="st38" points="108.9,247 108.9,247.5 181.3,247.5 181.4,247 	"/>
	<path class="st39" d="M169,106.1c-8.4-0.7-48,0.4-48,0.4l1.3-1c15.5-0.5,29.1-0.7,45.9-0.4L169,106.1z"/>
	<path class="st40" d="M178,204c0,0-4,10-1,17.3c3,7.3,7.1,4.8,7.1,4.8s-7.5,3-9.5,11.8c-2,8.8,8.7,18.5,8.7,18.5l0.9-39.1L178,204z
		"/>
	<g>
		<linearGradient id="SVGID_10_" gradientUnits="userSpaceOnUse" x1="171.8362" y1="235.5833" x2="194.5026" y2="235.5833">
			<stop  offset="0" style="stop-color:#FFA98E"/>
			<stop  offset="1" style="stop-color:#FFC5A4"/>
		</linearGradient>
		<path class="st41" d="M194.1,239.6c-0.8,1-3.5,2.8-6.6,4.2c-2.7,1.2-5.6,2.2-7.5,2c-4.2-0.3-7.8-7.1-8-8.8
			c-0.2-1.6-0.6-4.7,1.3-6.6c0.6-0.6,1.9-1.3,3.4-1.9c0,0,0,0,0,0c4.4-1.8,11.1-3.4,12-3.1C193.1,226.8,195.5,237.8,194.1,239.6z"/>
		<linearGradient id="SVGID_11_" gradientUnits="userSpaceOnUse" x1="179.4964" y1="235.2629" x2="186.3405" y2="235.2629">
			<stop  offset="0" style="stop-color:#F1BFBD"/>
			<stop  offset="1" style="stop-color:#F6D8BF"/>
		</linearGradient>
		<path class="st42" d="M179.5,230c0,0,5,5.1,4.8,10.6c0,0,3-2.8,1.7-7C184.8,229.3,179.5,230,179.5,230z"/>
		<path class="st28" d="M187.5,243.8L187.5,243.8c-2.7,1.2-5.6,2.2-7.5,2c-4.2-0.3-7.8-7.1-8-8.8c-0.2-1.6-0.6-4.7,1.3-6.6
			c0.6-0.6,1.9-1.3,3.4-1.9c-0.2,0.2-1.4,1.4-1.4,2c0.1,0.7,6.5,12.5,7.8,13.3C184.4,244.5,187.3,243.8,187.5,243.8z"/>
		<path class="st28" d="M179.5,230c0,0,5.5-1,7.4,2.5c1.9,3.5-2.6,8.1-2.6,8.1s2.3-3.1,1.8-6.7C185.6,229.7,179.5,230,179.5,230z"/>
		<path class="st33" d="M179.5,230c0,0,3.4,2.5,4.8,10.6l0.3-0.4c0,0,0.2-2.9-1-5.9c-1.2-3-3.2-4.3-3.2-4.3L179.5,230z"/>
		<path class="st35" d="M180.8,231.6l3.8-0.3c0,0,0.9,0.7,1.2,1.6l-3.8,0.5L180.8,231.6z"/>
	</g>
	<g>
		<linearGradient id="SVGID_12_" gradientUnits="userSpaceOnUse" x1="177.0303" y1="207.4859" x2="200.5703" y2="207.4859">
			<stop  offset="0" style="stop-color:#FFA98E"/>
			<stop  offset="1" style="stop-color:#FFC5A4"/>
		</linearGradient>
		<path class="st43" d="M199.6,212.8c-0.5,0.7-1.5,1.5-2.7,2.4l0,0c0,0,0,0,0,0c-2.7,2-6.5,4.1-8.4,4.4c-2.9,0.4-6.2-1.5-8.4-4.7
			c-1.3-1.8-4.6-7-2-10.8c0.8-1.2,2.7-2.7,4.9-4c0,0,0,0,0,0c4.5-2.7,10.5-5.1,12.1-4.6C201.4,197.3,201.3,210.7,199.6,212.8z"/>
		<linearGradient id="SVGID_13_" gradientUnits="userSpaceOnUse" x1="183.8797" y1="207.4829" x2="194.8823" y2="207.4829">
			<stop  offset="0" style="stop-color:#F1BFBD"/>
			<stop  offset="1" style="stop-color:#F6D8BF"/>
		</linearGradient>
		<path class="st44" d="M183.9,202.4c0,0,5,2.2,8,10.9c0,0,4.2-3.3,2.6-8.6C192.9,199.5,183.9,202.4,183.9,202.4z"/>
		<path class="st28" d="M196.8,215.2c-2.7,2-6.5,4.1-8.4,4.4c-2.9,0.4-6.2-1.5-8.4-4.7c-1.3-1.8-4.6-7-2-10.8c0.8-1.2,2.7-2.7,4.9-4
			c-0.2,0.2-2,2-2,2.8c-0.1,0.8,8.6,14.2,9.9,14.7C192,218,196.3,215.5,196.8,215.2z"/>
		<path class="st28" d="M183.9,202.4c0,0,8-2.9,11,1.2c3,4.1-3,9.8-3,9.8s4.1-4.9,2.6-8.6C192.5,200,183.9,202.4,183.9,202.4z"/>
		<path class="st33" d="M183.9,202.4l1.5-0.3c0,0,6.7,3.6,7.4,10.4l-0.9,1.2C191.8,213.7,190.1,206.2,183.9,202.4z"/>
		<path class="st35" d="M187.6,205.6l6.2-1.9c0,0-1.1-1.3-2.4-1.5l-5.5,1.7L187.6,205.6z"/>
	</g>
	<linearGradient id="SVGID_14_" gradientUnits="userSpaceOnUse" x1="120.9099" y1="350.2525" x2="120.9099" y2="286.279">
		<stop  offset="0" style="stop-color:#F5816D"/>
		<stop  offset="1" style="stop-color:#FFA488"/>
	</linearGradient>
	<path class="st45" d="M98.1,294.7c0,0,5.7,47.1,8,48.9c2.3,1.8,24.5,2.7,31.1-0.7c3.7-1.9-6.7-56.6-6.7-56.6l13.1,64H103
		L98.1,294.7z"/>
</g>
</svg>
